<?xml version="1.0" encoding="UTF-8"?>
<svg width="518px" height="241px" viewBox="0 0 518 241" version="1.1" xmlns="http://www.w3.org/2000/svg" xmlns:xlink="http://www.w3.org/1999/xlink">
    <!-- Generator: Sketch 43.2 (39069) - http://www.bohemiancoding.com/sketch -->
    <title>sunny</title>
    <desc>Created with Sketch.</desc>
    <defs>
        <style>
            @keyframes cloudRight {

                0% {
                    transform:translateX(0px);
                }

                100% {
                    transform:translateX(30px);
                }
            }

            @keyframes cloudLeft {
                0% {
                    transform:translateX(0px);
                }

                100% {
                    transform:translateX(-30px);
                
                }
            
            }

            @keyframes sun {
                0% {
                    transform:scale(1,1);
                    opacity:1;

                }

                100% {
                    transform:scale(1.1,1.1);
                    opacity:0.5;

                }
            }

            #left-cloud {
                animation:cloudLeft 1.5s infinite;
                animation-direction:alternate;
            }

            #right-cloud {
                animation:cloudRight 1.5s infinite;
                animation-direction:alternate;
            }

            #sun {
                animation:sun 1.5s infinite;
                animation-direction:alternate;
            }
        </style>
    </defs>
    <g id="Page-1" stroke="none" stroke-width="1" fill="none" fill-rule="evenodd">
        <g id="Artboard-3" transform="translate(-111.000000, -774.000000)">
            <g id="sunny" transform="translate(112.000000, 774.000000)">
                <path d="M254.937777,130.93483 C255.786385,130.978101 256.640635,131 257.5,131 C258.620737,131 259.732775,130.962754 260.834944,130.889433 L274.185613,163.791142 L273.928532,128.208554 C275.766572,127.562088 277.55495,126.810199 279.28641,125.960145 L304.285685,151.323284 L290.403514,118.481888 C291.840513,117.202448 293.202448,115.840513 294.481888,114.403515 L327.323284,128.285685 L301.960145,103.28641 C302.810199,101.55495 303.562088,99.766572 304.208554,97.9285322 L339.791142,98.1856128 L306.889433,84.834944 C306.962754,83.7327754 307,82.6207373 307,81.5 C307,80.6406349 306.978101,79.7863845 306.93483,78.9377766 L339.791142,65.605529 L304.478616,65.8606584 C303.837851,63.9349474 303.081991,62.0618078 302.219195,60.2493979 L327.323284,35.5054565 L294.987916,49.1737283 C293.634291,47.6053711 292.183911,46.1228648 290.646051,44.735481 L304.285685,12.4678583 L279.809349,37.300447 C277.917513,36.3436736 275.955922,35.5047888 273.934234,34.7934516 L274.185613,1.687539e-14 L261.147143,32.1323195 C259.942872,32.0446179 258.726647,32 257.5,32 C256.534512,32 255.57548,32.0276417 254.623653,32.0821768 L241.605529,2.62012634e-14 L241.854956,34.5232816 C239.743586,35.2261109 237.695429,36.0673022 235.721239,37.0361009 L211.505456,12.4678583 L224.929134,44.2245822 C223.257994,45.6860058 221.686006,47.2579938 220.224582,48.9291337 L188.467858,35.5054565 L213.036101,59.7212395 C212.067302,61.6954286 211.226111,63.7435856 210.523282,65.8549562 L176,65.605529 L208.082177,78.6236526 C208.027642,79.5754802 208,80.5345121 208,81.5 C208,82.7266467 208.044618,83.9428724 208.132319,85.1471426 L176,98.1856128 L210.793452,97.9342337 C211.504789,99.9559219 212.343674,101.917513 213.300447,103.809349 L188.467858,128.285685 L220.735481,114.646049 C222.122865,116.183911 223.605371,117.634291 225.173727,118.987916 L211.505456,151.323284 L236.249398,126.219195 C238.061808,127.081991 239.934947,127.837851 241.860658,128.478616 L241.605529,163.791142 L254.937777,130.93483 Z" id="sun" fill-opacity="0.98938519" fill="#FFD600"></path>
                <path d="M445.947086,107.397627 C438.256653,92.3229766 422.583857,82 404.5,82 C391.851806,82 380.383072,87.0498658 372,95.2433949 C363.616928,87.0498658 352.148194,82 339.5,82 C313.818759,82 293,102.818759 293,128.5 C293,128.810937 293.003052,129.121162 293.009127,129.430646 C272.885331,134.545855 258,152.7846 258,174.5 C258,200.181241 278.818759,221 304.5,221 C312.461997,221 319.956615,218.998909 326.508353,215.472225 C334.350892,230.072725 349.766126,240 367.5,240 C385.583857,240 401.256653,229.677023 408.947086,214.602373 C415.854627,218.668068 423.904988,221 432.5,221 C451.337355,221 467.558542,209.798848 474.866418,193.693684 C498.019906,191.033066 516,171.366271 516,147.5 C516,121.818759 495.181241,101 469.5,101 C460.904988,101 452.854627,103.331932 445.947086,107.397627 Z" id="right-cloud" stroke="#D8D8D8" fill="#FFFAFA"></path>
                <path d="M187.947086,107.397627 C180.256653,92.3229766 164.583857,82 146.5,82 C133.851806,82 122.383072,87.0498658 114,95.2433949 C105.616928,87.0498658 94.1481936,82 81.5,82 C55.8187591,82 35,102.818759 35,128.5 C35,128.810937 35.0030519,129.121162 35.0091274,129.430646 C14.8853314,134.545855 0,152.7846 0,174.5 C0,200.181241 20.8187591,221 46.5,221 C54.4619974,221 61.9566149,218.998909 68.5083534,215.472225 C76.3508921,230.072725 91.7661264,240 109.5,240 C127.583857,240 143.256653,229.677023 150.947086,214.602373 C157.854627,218.668068 165.904988,221 174.5,221 C193.337355,221 209.558542,209.798848 216.866418,193.693684 C240.019906,191.033066 258,171.366271 258,147.5 C258,121.818759 237.181241,101 211.5,101 C202.904988,101 194.854627,103.331932 187.947086,107.397627 Z" id="left-cloud" stroke="#D8D8D8" fill="#FFFAFA"></path>
            </g>
        </g>
    </g>
</svg>